# Blender 4.2.0
# www.blender.org
mtllib exocortex_prototype_final.mtl
o headband
o front_module
v 0.060080 -0.002241 -0.012500
v 0.060080 -0.002250 -0.012450
v 0.060000 -0.002241 -0.012450
v 0.060080 -0.002245 -0.012493
v 0.060040 -0.002241 -0.012493
v 0.060042 -0.002245 -0.012487
v 0.060040 -0.002249 -0.012450
v 0.060080 -0.002249 -0.012475
v 0.060042 -0.002248 -0.012474
v 0.060011 -0.002241 -0.012475
v 0.060011 -0.002245 -0.012450
v 0.060021 -0.002245 -0.012474
v 0.060080 -0.002250 0.012450
v 0.060080 -0.002241 0.012500
v 0.060000 -0.002241 0.012450
v 0.060080 -0.002249 0.012475
v 0.060040 -0.002249 0.012450
v 0.060042 -0.002248 0.012474
v 0.060040 -0.002241 0.012493
v 0.060080 -0.002245 0.012493
v 0.060042 -0.002245 0.012487
v 0.060011 -0.002245 0.012450
v 0.060011 -0.002241 0.012475
v 0.060021 -0.002245 0.012474
v 0.060080 0.002241 -0.012500
v 0.060000 0.002241 -0.012450
v 0.060080 0.002250 -0.012450
v 0.060040 0.002241 -0.012493
v 0.060080 0.002245 -0.012493
v 0.060042 0.002245 -0.012487
v 0.060011 0.002245 -0.012450
v 0.060011 0.002241 -0.012475
v 0.060021 0.002245 -0.012474
v 0.060080 0.002249 -0.012475
v 0.060040 0.002249 -0.012450
v 0.060042 0.002248 -0.012474
v 0.060080 0.002241 0.012500
v 0.060080 0.002250 0.012450
v 0.060000 0.002241 0.012450
v 0.060080 0.002245 0.012493
v 0.060040 0.002241 0.012493
v 0.060042 0.002245 0.012487
v 0.060040 0.002249 0.012450
v 0.060080 0.002249 0.012475
v 0.060042 0.002248 0.012474
v 0.060011 0.002241 0.012475
v 0.060011 0.002245 0.012450
v 0.060021 0.002245 0.012474
v 0.099920 -0.002241 -0.012500
v 0.100000 -0.002241 -0.012450
v 0.099920 -0.002250 -0.012450
v 0.099960 -0.002241 -0.012493
v 0.099920 -0.002245 -0.012493
v 0.099958 -0.002245 -0.012487
v 0.099989 -0.002245 -0.012450
v 0.099989 -0.002241 -0.012475
v 0.099979 -0.002245 -0.012474
v 0.099920 -0.002249 -0.012475
v 0.099960 -0.002249 -0.012450
v 0.099958 -0.002248 -0.012474
v 0.099920 -0.002241 0.012500
v 0.099920 -0.002250 0.012450
v 0.100000 -0.002241 0.012450
v 0.099920 -0.002245 0.012493
v 0.099960 -0.002241 0.012493
v 0.099958 -0.002245 0.012487
v 0.099960 -0.002249 0.012450
v 0.099920 -0.002249 0.012475
v 0.099958 -0.002248 0.012474
v 0.099989 -0.002241 0.012475
v 0.099989 -0.002245 0.012450
v 0.099979 -0.002245 0.012474
v 0.099920 0.002241 -0.012500
v 0.099920 0.002250 -0.012450
v 0.100000 0.002241 -0.012450
v 0.099920 0.002245 -0.012493
v 0.099960 0.002241 -0.012493
v 0.099958 0.002245 -0.012487
v 0.099960 0.002249 -0.012450
v 0.099920 0.002249 -0.012475
v 0.099958 0.002248 -0.012474
v 0.099989 0.002241 -0.012475
v 0.099989 0.002245 -0.012450
v 0.099979 0.002245 -0.012474
v 0.099920 0.002241 0.012500
v 0.100000 0.002241 0.012450
v 0.099920 0.002250 0.012450
v 0.099960 0.002241 0.012493
v 0.099920 0.002245 0.012493
v 0.099958 0.002245 0.012487
v 0.099989 0.002245 0.012450
v 0.099989 0.002241 0.012475
v 0.099979 0.002245 0.012474
v 0.099920 0.002249 0.012475
v 0.099960 0.002249 0.012450
v 0.099958 0.002248 0.012474
vn -0.0000 -1.0000 -0.0000
vn 1.0000 -0.0000 -0.0000
vn -0.0000 -0.0000 1.0000
vn -1.0000 -0.0000 -0.0000
vn -0.0000 1.0000 -0.0000
vn -0.0937 -0.8333 -0.5448
vn -0.0349 -0.9836 -0.1770
vn -0.0309 -0.9983 -0.0495
vn -0.1116 -0.9922 -0.0563
vn -0.3731 -0.9131 -0.1644
vn -0.2959 -0.8297 -0.4734
vn -0.1100 -0.9782 -0.1761
vn -0.0309 -0.9983 0.0495
vn -0.0349 -0.9836 0.1770
vn -0.0938 -0.8333 0.5448
vn -0.2959 -0.8297 0.4734
vn -0.3731 -0.9131 0.1644
vn -0.1116 -0.9922 0.0563
vn -0.1100 -0.9782 0.1761
vn -0.0938 0.8333 -0.5448
vn -0.2959 0.8297 -0.4734
vn -0.3731 0.9131 -0.1644
vn -0.1116 0.9922 -0.0563
vn -0.0309 0.9983 -0.0495
vn -0.0349 0.9836 -0.1770
vn -0.1100 0.9782 -0.1761
vn -0.0937 0.8333 0.5448
vn -0.0349 0.9836 0.1770
vn -0.0309 0.9983 0.0495
vn -0.1116 0.9922 0.0563
vn -0.3731 0.9131 0.1644
vn -0.2959 0.8297 0.4734
vn -0.1100 0.9782 0.1761
vn 0.0938 -0.8333 -0.5448
vn 0.2959 -0.8297 -0.4734
vn 0.3731 -0.9131 -0.1644
vn 0.1116 -0.9922 -0.0563
vn 0.0309 -0.9983 -0.0495
vn 0.0349 -0.9836 -0.1770
vn 0.1100 -0.9782 -0.1761
vn 0.0937 -0.8333 0.5448
vn 0.0349 -0.9836 0.1770
vn 0.0309 -0.9983 0.0495
vn 0.1116 -0.9922 0.0563
vn 0.3731 -0.9131 0.1644
vn 0.2959 -0.8297 0.4734
vn 0.1100 -0.9782 0.1761
vn 0.0937 0.8333 -0.5448
vn 0.0349 0.9836 -0.1770
vn 0.0309 0.9983 -0.0495
vn 0.1116 0.9922 -0.0563
vn 0.3731 0.9131 -0.1644
vn 0.2959 0.8297 -0.4734
vn 0.1100 0.9782 -0.1761
vn 0.0938 0.8333 0.5448
vn 0.2959 0.8297 0.4734
vn 0.3731 0.9131 0.1644
vn 0.1116 0.9922 0.0563
vn 0.0309 0.9983 0.0495
vn 0.0349 0.9836 0.1770
vn 0.1100 0.9782 0.1761
vn -0.1649 -0.0000 -0.9863
vn -0.5300 -0.0000 -0.8480
vn -0.9193 -0.0000 -0.3935
vn -0.0301 -0.9995 -0.0000
vn -0.1118 -0.9937 -0.0000
vn -0.3877 -0.9218 -0.0000
vn -0.1649 -0.0000 0.9863
vn -0.5300 -0.0000 0.8480
vn -0.9193 -0.0000 0.3935
vn -0.0301 0.9995 -0.0000
vn -0.1118 0.9937 -0.0000
vn -0.3877 0.9218 -0.0000
vn -0.0000 0.8297 -0.5583
vn -0.0000 0.9842 -0.1772
vn -0.0000 0.9988 -0.0481
vn -0.0000 0.8297 0.5583
vn -0.0000 0.9842 0.1772
vn -0.0000 0.9988 0.0481
vn 0.3877 0.9218 -0.0000
vn 0.1118 0.9937 -0.0000
vn 0.0301 0.9995 -0.0000
vn 0.1649 -0.0000 -0.9863
vn 0.5300 -0.0000 -0.8480
vn 0.9193 -0.0000 -0.3935
vn 0.1649 -0.0000 0.9863
vn 0.5300 -0.0000 0.8480
vn 0.9193 -0.0000 0.3935
vn 0.0301 -0.9995 -0.0000
vn 0.1118 -0.9937 -0.0000
vn 0.3877 -0.9218 -0.0000
vn -0.0000 -0.8297 -0.5583
vn -0.0000 -0.9842 -0.1772
vn -0.0000 -0.9988 -0.0481
vn -0.0000 -0.8297 0.5583
vn -0.0000 -0.9842 0.1772
vn -0.0000 -0.9988 0.0481
vn -0.0000 -0.0000 -1.0000
vt 0.375500 0.750500
vt 0.624500 0.750500
vt 0.624500 0.999500
vt 0.375500 0.999500
vt 0.375500 0.500500
vt 0.624500 0.500500
vt 0.624500 0.749500
vt 0.375500 0.749500
vt 0.625500 0.500500
vt 0.874500 0.500500
vt 0.874500 0.749500
vt 0.625500 0.749500
vt 0.375500 0.000500
vt 0.624500 0.000500
vt 0.624500 0.249500
vt 0.375500 0.249500
vt 0.375500 0.250500
vt 0.624500 0.250500
vt 0.624500 0.499500
vt 0.375500 0.499500
vt 0.125500 0.749500
vt 0.125500 0.749750
vt 0.125261 0.749739
vt 0.125250 0.749500
vt 0.125500 0.750000
vt 0.125261 0.750000
vt 0.375500 1.000000
vt 0.375000 0.999739
vt 0.375000 0.999500
vt 0.375500 0.000000
vt 0.375500 0.000250
vt 0.375000 0.000261
vt 0.375000 0.000000
vt 0.375000 0.000500
vt 0.125000 0.749500
vt 0.125000 0.749739
vt 0.624750 0.999500
vt 0.624739 0.999739
vt 0.624500 1.000000
vt 0.625000 0.999500
vt 0.625000 0.999739
vt 0.875000 0.749500
vt 0.874739 0.750000
vt 0.874500 0.750000
vt 0.625000 0.000500
vt 0.624750 0.000500
vt 0.624739 0.000261
vt 0.625000 0.000000
vt 0.624500 0.000250
vt 0.624500 0.000000
vt 0.624739 0.000132
vt 0.624739 0.999868
vt 0.125500 0.500500
vt 0.125250 0.500500
vt 0.125261 0.500261
vt 0.125500 0.500250
vt 0.125000 0.500500
vt 0.125000 0.500261
vt 0.375500 0.249750
vt 0.375000 0.249739
vt 0.375000 0.249500
vt 0.375500 0.250250
vt 0.375000 0.250261
vt 0.375000 0.250500
vt 0.125500 0.500000
vt 0.125261 0.500000
vt 0.874500 0.500000
vt 0.874739 0.500000
vt 0.875000 0.500500
vt 0.625000 0.250500
vt 0.624750 0.250500
vt 0.624739 0.250261
vt 0.625000 0.250261
vt 0.624500 0.250250
vt 0.624500 0.249750
vt 0.624739 0.249739
vt 0.624750 0.249500
vt 0.625000 0.249500
vt 0.625000 0.250000
vt 0.624739 0.250132
vt 0.374500 0.749500
vt 0.374750 0.749500
vt 0.374739 0.749739
vt 0.374500 0.749750
vt 0.375250 0.749500
vt 0.375261 0.749739
vt 0.375500 0.749750
vt 0.375500 0.750250
vt 0.375000 0.750261
vt 0.375000 0.750500
vt 0.374500 0.750000
vt 0.374739 0.750000
vt 0.374868 0.749739
vt 0.625500 0.750000
vt 0.625261 0.750000
vt 0.625250 0.749500
vt 0.625000 0.750500
vt 0.624750 0.750500
vt 0.624739 0.750261
vt 0.625000 0.750261
vt 0.624500 0.750250
vt 0.624500 0.749750
vt 0.624739 0.749739
vt 0.624750 0.749500
vt 0.624739 0.750132
vt 0.374500 0.500500
vt 0.374500 0.500250
vt 0.374739 0.500261
vt 0.374750 0.500500
vt 0.374500 0.500000
vt 0.374739 0.500000
vt 0.375500 0.499750
vt 0.375000 0.499739
vt 0.375000 0.499500
vt 0.375500 0.500250
vt 0.375261 0.500261
vt 0.375250 0.500500
vt 0.374868 0.500261
vt 0.625250 0.500500
vt 0.625261 0.500261
vt 0.625500 0.500000
vt 0.624750 0.500500
vt 0.624739 0.500261
vt 0.624500 0.500250
vt 0.624500 0.499750
vt 0.624739 0.499739
vt 0.624750 0.499500
vt 0.625000 0.499500
vt 0.624868 0.499739
vt 0.624868 0.500261
vt 0.624739 0.500132
s 0
usemtl Headset_Material
f 51/1/1 62/2/1 13/3/1 2/4/1
f 75/5/2 86/6/2 63/7/2 50/8/2
f 85/9/3 37/10/3 14/11/3 61/12/3
f 3/13/4 15/14/4 39/15/4 26/16/4
f 27/17/5 38/18/5 87/19/5 74/20/5
f 1/21/6 4/22/6 6/23/6 5/24/6
f 4/22/7 8/25/7 9/26/7 6/23/7
f 2/4/8 7/27/8 9/28/8 8/29/8
f 7/30/9 11/31/9 12/32/9 9/33/9
f 3/13/10 10/34/10 12/32/10 11/31/10
f 10/35/11 5/24/11 6/23/11 12/36/11
f 6/23/12 9/26/12 12/36/12
f 13/3/13 16/37/13 18/38/13 17/39/13
f 16/37/14 20/40/14 21/41/14 18/38/14
f 14/11/15 19/42/15 21/43/15 20/44/15
f 19/45/16 23/46/16 24/47/16 21/48/16
f 15/14/17 22/49/17 24/47/17 23/46/17
f 22/49/18 17/50/18 18/51/18 24/47/18
f 18/38/19 21/41/19 24/52/19
f 25/53/20 28/54/20 30/55/20 29/56/20
f 28/54/21 32/57/21 33/58/21 30/55/21
f 26/16/22 31/59/22 33/60/22 32/61/22
f 31/59/23 35/62/23 36/63/23 33/60/23
f 27/17/24 34/64/24 36/63/24 35/62/24
f 34/65/25 29/56/25 30/55/25 36/66/25
f 30/55/26 33/58/26 36/66/26
f 37/10/27 40/67/27 42/68/27 41/69/27
f 40/70/28 44/71/28 45/72/28 42/73/28
f 38/18/29 43/74/29 45/72/29 44/71/29
f 43/74/30 47/75/30 48/76/30 45/72/30
f 39/15/31 46/77/31 48/76/31 47/75/31
f 46/77/32 41/78/32 42/79/32 48/76/32
f 42/73/33 45/72/33 48/80/33
f 49/81/34 52/82/34 54/83/34 53/84/34
f 52/82/35 56/85/35 57/86/35 54/83/35
f 50/8/36 55/87/36 57/86/36 56/85/36
f 55/87/37 59/88/37 60/89/37 57/86/37
f 51/1/38 58/90/38 60/89/38 59/88/38
f 58/91/39 53/84/39 54/83/39 60/92/39
f 54/83/40 57/93/40 60/92/40
f 61/12/41 64/94/41 66/95/41 65/96/41
f 64/97/42 68/98/42 69/99/42 66/100/42
f 62/2/43 67/101/43 69/99/43 68/98/43
f 67/101/44 71/102/44 72/103/44 69/99/44
f 63/7/45 70/104/45 72/103/45 71/102/45
f 70/104/46 65/96/46 66/95/46 72/103/46
f 66/100/47 69/99/47 72/105/47
f 73/106/48 76/107/48 78/108/48 77/109/48
f 76/107/49 80/110/49 81/111/49 78/108/49
f 74/20/50 79/112/50 81/113/50 80/114/50
f 79/112/51 83/115/51 84/116/51 81/113/51
f 75/5/52 82/117/52 84/116/52 83/115/52
f 82/117/53 77/109/53 78/108/53 84/116/53
f 78/108/54 81/111/54 84/118/54
f 85/9/55 88/119/55 90/120/55 89/121/55
f 88/119/56 92/122/56 93/123/56 90/120/56
f 86/6/57 91/124/57 93/123/57 92/122/57
f 91/124/58 95/125/58 96/126/58 93/123/58
f 87/19/59 94/127/59 96/126/59 95/125/59
f 94/127/60 89/128/60 90/129/60 96/126/60
f 90/130/61 93/123/61 96/131/61
f 25/53/62 1/21/62 5/24/62 28/54/62
f 28/54/63 5/24/63 10/35/63 32/57/63
f 32/61/64 10/34/64 3/13/64 26/16/64
f 2/4/65 13/3/65 17/39/65 7/27/65
f 7/30/66 17/50/66 22/49/66 11/31/66
f 11/31/67 22/49/67 15/14/67 3/13/67
f 14/11/68 37/10/68 41/69/68 19/42/68
f 19/45/69 41/78/69 46/77/69 23/46/69
f 23/46/70 46/77/70 39/15/70 15/14/70
f 38/18/71 27/17/71 35/62/71 43/74/71
f 43/74/72 35/62/72 31/59/72 47/75/72
f 47/75/73 31/59/73 26/16/73 39/15/73
f 73/106/74 25/53/74 29/56/74 76/107/74
f 76/107/75 29/56/75 34/65/75 80/110/75
f 80/114/76 34/64/76 27/17/76 74/20/76
f 37/10/77 85/9/77 89/121/77 40/67/77
f 40/70/78 89/128/78 94/127/78 44/71/78
f 44/71/79 94/127/79 87/19/79 38/18/79
f 86/6/80 75/5/80 83/115/80 91/124/80
f 91/124/81 83/115/81 79/112/81 95/125/81
f 95/125/82 79/112/82 74/20/82 87/19/82
f 49/81/83 73/106/83 77/109/83 52/82/83
f 52/82/84 77/109/84 82/117/84 56/85/84
f 56/85/85 82/117/85 75/5/85 50/8/85
f 85/9/86 61/12/86 65/96/86 88/119/86
f 88/119/87 65/96/87 70/104/87 92/122/87
f 92/122/88 70/104/88 63/7/88 86/6/88
f 62/2/89 51/1/89 59/88/89 67/101/89
f 67/101/90 59/88/90 55/87/90 71/102/90
f 71/102/91 55/87/91 50/8/91 63/7/91
f 1/21/92 49/81/92 53/84/92 4/22/92
f 4/22/93 53/84/93 58/91/93 8/25/93
f 8/29/94 58/90/94 51/1/94 2/4/94
f 61/12/95 14/11/95 20/44/95 64/94/95
f 64/97/96 20/40/96 16/37/96 68/98/96
f 68/98/97 16/37/97 13/3/97 62/2/97
f 25/53/98 73/106/98 49/81/98 1/21/98
o speaker_pad
v -0.089980 -0.001497 -0.002500
v -0.089980 -0.001500 -0.002495
v -0.090000 -0.001497 -0.002495
v -0.089980 -0.001499 -0.002499
v -0.089992 -0.001499 -0.002498
v -0.089994 -0.001499 -0.002495
v -0.089994 -0.001497 -0.002499
v -0.089980 -0.001500 0.002495
v -0.089980 -0.001497 0.002500
v -0.090000 -0.001497 0.002495
v -0.089980 -0.001499 0.002499
v -0.089992 -0.001499 0.002498
v -0.089994 -0.001497 0.002499
v -0.089994 -0.001499 0.002495
v -0.089980 0.001497 -0.002500
v -0.090000 0.001497 -0.002495
v -0.089980 0.001500 -0.002495
v -0.089994 0.001497 -0.002499
v -0.089992 0.001499 -0.002498
v -0.089994 0.001499 -0.002495
v -0.089980 0.001499 -0.002499
v -0.089980 0.001497 0.002500
v -0.089980 0.001500 0.002495
v -0.090000 0.001497 0.002495
v -0.089980 0.001499 0.002499
v -0.089992 0.001499 0.002498
v -0.089994 0.001499 0.002495
v -0.089994 0.001497 0.002499
v -0.070020 -0.001497 -0.002500
v -0.070000 -0.001497 -0.002495
v -0.070020 -0.001500 -0.002495
v -0.070006 -0.001497 -0.002499
v -0.070008 -0.001499 -0.002498
v -0.070006 -0.001499 -0.002495
v -0.070020 -0.001499 -0.002499
v -0.070020 -0.001497 0.002500
v -0.070020 -0.001500 0.002495
v -0.070000 -0.001497 0.002495
v -0.070020 -0.001499 0.002499
v -0.070008 -0.001499 0.002498
v -0.070006 -0.001499 0.002495
v -0.070006 -0.001497 0.002499
v -0.070020 0.001497 -0.002500
v -0.070020 0.001500 -0.002495
v -0.070000 0.001497 -0.002495
v -0.070020 0.001499 -0.002499
v -0.070008 0.001499 -0.002498
v -0.070006 0.001499 -0.002495
v -0.070006 0.001497 -0.002499
v -0.070020 0.001497 0.002500
v -0.070000 0.001497 0.002495
v -0.070020 0.001500 0.002495
v -0.070006 0.001497 0.002499
v -0.070008 0.001499 0.002498
v -0.070006 0.001499 0.002495
v -0.070020 0.001499 0.002499
vn -0.0000 -1.0000 -0.0000
vn 1.0000 -0.0000 -0.0000
vn -0.0000 -0.0000 1.0000
vn -1.0000 -0.0000 -0.0000
vn -0.0000 1.0000 -0.0000
vn -0.0779 -0.5192 -0.8511
vn -0.0536 -0.9753 -0.2142
vn -0.3315 -0.8090 -0.4854
vn -0.0535 -0.9753 0.2142
vn -0.0779 -0.5192 0.8511
vn -0.3315 -0.8090 0.4854
vn -0.0779 0.5192 -0.8511
vn -0.3315 0.8090 -0.4854
vn -0.0535 0.9753 -0.2142
vn -0.0779 0.5192 0.8511
vn -0.0536 0.9753 0.2142
vn -0.3315 0.8090 0.4854
vn 0.0779 -0.5192 -0.8511
vn 0.3315 -0.8090 -0.4854
vn 0.0535 -0.9753 -0.2142
vn 0.0779 -0.5192 0.8511
vn 0.0536 -0.9753 0.2142
vn 0.3315 -0.8090 0.4854
vn 0.0779 0.5192 -0.8511
vn 0.0536 0.9753 -0.2142
vn 0.3315 0.8090 -0.4854
vn 0.0779 0.5192 0.8511
vn 0.3315 0.8090 0.4854
vn 0.0535 0.9753 0.2142
vn -0.1030 -0.0000 -0.9947
vn -0.5167 -0.0000 -0.8562
vn -0.0620 -0.9981 -0.0000
vn -0.3405 -0.9402 -0.0000
vn -0.1030 -0.0000 0.9947
vn -0.5167 -0.0000 0.8562
vn -0.0620 0.9981 -0.0000
vn -0.3405 0.9402 -0.0000
vn -0.0000 0.5681 -0.8229
vn -0.0000 0.9705 -0.2412
vn -0.0000 0.5681 0.8229
vn -0.0000 0.9705 0.2412
vn 0.3405 0.9402 -0.0000
vn 0.0620 0.9981 -0.0000
vn 0.1030 -0.0000 -0.9947
vn 0.5167 -0.0000 -0.8562
vn 0.1030 -0.0000 0.9947
vn 0.5167 -0.0000 0.8562
vn 0.0620 -0.9981 -0.0000
vn 0.3405 -0.9402 -0.0000
vn -0.0000 -0.5681 -0.8229
vn -0.0000 -0.9705 -0.2412
vn -0.0000 -0.5681 0.8229
vn -0.0000 -0.9705 0.2412
vn -0.0000 -0.0000 -1.0000
vt 0.375250 0.750250
vt 0.624750 0.750250
vt 0.624750 0.999750
vt 0.375250 0.999750
vt 0.375250 0.500250
vt 0.624750 0.500250
vt 0.624750 0.749750
vt 0.375250 0.749750
vt 0.625250 0.500250
vt 0.874750 0.500250
vt 0.874750 0.749750
vt 0.625250 0.749750
vt 0.375250 0.000250
vt 0.624750 0.000250
vt 0.624750 0.249750
vt 0.375250 0.249750
vt 0.375250 0.250250
vt 0.624750 0.250250
vt 0.624750 0.499750
vt 0.375250 0.499750
vt 0.125250 0.749750
vt 0.125250 0.750000
vt 0.125106 0.750000
vt 0.125000 0.749750
vt 0.375250 1.000000
vt 0.375106 1.000000
vt 0.375000 0.999750
vt 0.375000 0.000250
vt 0.375000 0.000106
vt 0.375250 0.000000
vt 0.625000 0.999750
vt 0.625000 0.999894
vt 0.624750 1.000000
vt 0.875000 0.749750
vt 0.875000 0.749894
vt 0.874750 0.750000
vt 0.624750 0.000000
vt 0.624894 0.000000
vt 0.625000 0.000250
vt 0.125250 0.500250
vt 0.125000 0.500250
vt 0.125000 0.500106
vt 0.125250 0.500000
vt 0.375250 0.250000
vt 0.375106 0.250000
vt 0.375000 0.249750
vt 0.375000 0.250250
vt 0.375000 0.250106
vt 0.874750 0.500000
vt 0.874894 0.500000
vt 0.875000 0.500250
vt 0.624750 0.250000
vt 0.624894 0.250000
vt 0.625000 0.250250
vt 0.625000 0.249750
vt 0.625000 0.249894
vt 0.374750 0.749750
vt 0.375000 0.749750
vt 0.375035 0.750000
vt 0.374750 0.750000
vt 0.375250 0.750000
vt 0.375000 0.750250
vt 0.625250 0.750000
vt 0.625000 0.749965
vt 0.625000 0.749750
vt 0.624750 0.750000
vt 0.625000 0.750250
vt 0.374750 0.500250
vt 0.374750 0.500000
vt 0.375000 0.500035
vt 0.375000 0.500250
vt 0.375250 0.500000
vt 0.375000 0.499750
vt 0.625000 0.500250
vt 0.624965 0.500000
vt 0.625250 0.500000
vt 0.624750 0.500000
vt 0.625000 0.499750
s 0
usemtl Headset_Material
f 127/132/99 133/133/99 104/134/99 98/135/99
f 141/136/100 147/137/100 134/138/100 126/139/100
f 146/140/101 118/141/101 105/142/101 132/143/101
f 99/144/102 106/145/102 120/146/102 112/147/102
f 113/148/103 119/149/103 148/150/103 140/151/103
f 97/152/104 100/153/104 101/154/104 103/155/104
f 98/135/105 102/156/105 101/157/105 100/158/105
f 99/144/106 103/159/106 101/160/106 102/161/106
f 104/134/107 107/162/107 108/163/107 110/164/107
f 105/142/108 109/165/108 108/166/108 107/167/108
f 106/145/109 110/168/109 108/169/109 109/170/109
f 111/171/110 114/172/110 115/173/110 117/174/110
f 112/147/111 116/175/111 115/176/111 114/177/111
f 113/148/112 117/178/112 115/179/112 116/175/112
f 118/141/113 121/180/113 122/181/113 124/182/113
f 119/149/114 123/183/114 122/184/114 121/185/114
f 120/146/115 124/186/115 122/187/115 123/183/115
f 125/188/116 128/189/116 129/190/116 131/191/116
f 126/139/117 130/192/117 129/190/117 128/189/117
f 127/132/118 131/193/118 129/190/118 130/192/118
f 132/143/119 135/194/119 136/195/119 138/196/119
f 133/133/120 137/197/120 136/195/120 135/198/120
f 134/138/121 138/196/121 136/195/121 137/197/121
f 139/199/122 142/200/122 143/201/122 145/202/122
f 140/151/123 144/203/123 143/201/123 142/204/123
f 141/136/124 145/202/124 143/201/124 144/203/124
f 146/140/125 149/205/125 150/206/125 152/207/125
f 147/137/126 151/208/126 150/206/126 149/205/126
f 148/150/127 152/209/127 150/206/127 151/208/127
f 111/171/128 97/152/128 103/155/128 114/172/128
f 114/177/129 103/159/129 99/144/129 112/147/129
f 98/135/130 104/134/130 110/164/130 102/156/130
f 102/161/131 110/168/131 106/145/131 99/144/131
f 105/142/132 118/141/132 124/182/132 109/165/132
f 109/170/133 124/186/133 120/146/133 106/145/133
f 119/149/134 113/148/134 116/175/134 123/183/134
f 123/183/135 116/175/135 112/147/135 120/146/135
f 139/199/136 111/171/136 117/174/136 142/200/136
f 142/204/137 117/178/137 113/148/137 140/151/137
f 118/141/138 146/140/138 152/207/138 121/180/138
f 121/185/139 152/209/139 148/150/139 119/149/139
f 147/137/140 141/136/140 144/203/140 151/208/140
f 151/208/141 144/203/141 140/151/141 148/150/141
f 125/188/142 139/199/142 145/202/142 128/189/142
f 128/189/143 145/202/143 141/136/143 126/139/143
f 146/140/144 132/143/144 138/196/144 149/205/144
f 149/205/145 138/196/145 134/138/145 147/137/145
f 133/133/146 127/132/146 130/192/146 137/197/146
f 137/197/147 130/192/147 126/139/147 134/138/147
f 97/152/148 125/188/148 131/191/148 100/153/148
f 100/158/149 131/193/149 127/132/149 98/135/149
f 132/143/150 105/142/150 107/167/150 135/194/150
f 135/198/151 107/162/151 104/134/151 133/133/151
f 111/171/152 139/199/152 125/188/152 97/152/152
o camera
v 0.081110 0.000057 0.000194
v 0.081110 0.000057 0.000306
v 0.081110 0.000078 0.000194
v 0.081110 0.000078 0.000306
v 0.081290 0.000057 0.000194
v 0.081290 0.000057 0.000306
v 0.081290 0.000078 0.000194
v 0.081290 0.000078 0.000306
vn -1.0000 -0.0000 -0.0000
vn -0.0000 1.0000 -0.0000
vn 1.0000 -0.0000 -0.0000
vn -0.0000 -1.0000 -0.0000
vn -0.0000 -0.0000 -1.0000
vn -0.0000 -0.0000 1.0000
vt 0.375000 0.000000
vt 0.625000 0.000000
vt 0.625000 0.250000
vt 0.375000 0.250000
vt 0.625000 0.500000
vt 0.375000 0.500000
vt 0.625000 0.750000
vt 0.375000 0.750000
vt 0.625000 1.000000
vt 0.375000 1.000000
vt 0.125000 0.500000
vt 0.125000 0.750000
vt 0.875000 0.500000
vt 0.875000 0.750000
s 0
usemtl camera_material
f 153/210/153 154/211/153 156/212/153 155/213/153
f 155/213/154 156/212/154 160/214/154 159/215/154
f 159/215/155 160/214/155 158/216/155 157/217/155
f 157/217/156 158/216/156 154/218/156 153/219/156
f 155/220/157 159/215/157 157/217/157 153/221/157
f 160/214/158 156/222/158 154/223/158 158/216/158
o esp32
v 0.079750 -0.000017 -0.000019
v 0.079750 -0.000017 0.000019
v 0.079750 0.000017 -0.000019
v 0.079750 0.000017 0.000019
v 0.080250 -0.000017 -0.000019
v 0.080250 -0.000017 0.000019
v 0.080250 0.000017 -0.000019
v 0.080250 0.000017 0.000019
vn -1.0000 -0.0000 -0.0000
vn -0.0000 1.0000 -0.0000
vn 1.0000 -0.0000 -0.0000
vn -0.0000 -1.0000 -0.0000
vn -0.0000 -0.0000 -1.0000
vn -0.0000 -0.0000 1.0000
vt 0.375000 0.000000
vt 0.625000 0.000000
vt 0.625000 0.250000
vt 0.375000 0.250000
vt 0.625000 0.500000
vt 0.375000 0.500000
vt 0.625000 0.750000
vt 0.375000 0.750000
vt 0.625000 1.000000
vt 0.375000 1.000000
vt 0.125000 0.500000
vt 0.125000 0.750000
vt 0.875000 0.500000
vt 0.875000 0.750000
s 0
usemtl esp32_material
f 161/224/159 162/225/159 164/226/159 163/227/159
f 163/227/160 164/226/160 168/228/160 167/229/160
f 167/229/161 168/228/161 166/230/161 165/231/161
f 165/231/162 166/230/162 162/232/162 161/233/162
f 163/234/163 167/229/163 165/231/163 161/235/163
f 168/228/164 164/236/164 162/237/164 166/230/164
o mic
v 0.081140 -0.000003 0.000244
v 0.081140 -0.000003 0.000256
v 0.081140 0.000003 0.000244
v 0.081140 0.000003 0.000256
v 0.081260 -0.000003 0.000244
v 0.081260 -0.000003 0.000256
v 0.081260 0.000003 0.000244
v 0.081260 0.000003 0.000256
vn -1.0000 -0.0000 -0.0000
vn -0.0000 1.0000 -0.0000
vn 1.0000 -0.0000 -0.0000
vn -0.0000 -1.0000 -0.0000
vn -0.0000 -0.0000 -1.0000
vn -0.0000 -0.0000 1.0000
vt 0.375000 0.000000
vt 0.625000 0.000000
vt 0.625000 0.250000
vt 0.375000 0.250000
vt 0.625000 0.500000
vt 0.375000 0.500000
vt 0.625000 0.750000
vt 0.375000 0.750000
vt 0.625000 1.000000
vt 0.375000 1.000000
vt 0.125000 0.500000
vt 0.125000 0.750000
vt 0.875000 0.500000
vt 0.875000 0.750000
s 0
usemtl mic_material
f 169/238/165 170/239/165 172/240/165 171/241/165
f 171/241/166 172/240/166 176/242/166 175/243/166
f 175/243/167 176/242/167 174/244/167 173/245/167
f 173/245/168 174/244/168 170/246/168 169/247/168
f 171/248/169 175/243/169 173/245/169 169/249/169
f 176/242/170 172/250/170 170/251/170 174/244/170
o usb
v 0.079910 -0.000071 -0.000013
v 0.079910 -0.000071 0.000012
v 0.079910 -0.000064 -0.000013
v 0.079910 -0.000064 0.000012
v 0.080090 -0.000071 -0.000013
v 0.080090 -0.000071 0.000012
v 0.080090 -0.000064 -0.000013
v 0.080090 -0.000064 0.000012
vn -1.0000 -0.0000 -0.0000
vn -0.0000 1.0000 -0.0000
vn 1.0000 -0.0000 -0.0000
vn -0.0000 -1.0000 -0.0000
vn -0.0000 -0.0000 -1.0000
vn -0.0000 -0.0000 1.0000
vt 0.375000 0.000000
vt 0.625000 0.000000
vt 0.625000 0.250000
vt 0.375000 0.250000
vt 0.625000 0.500000
vt 0.375000 0.500000
vt 0.625000 0.750000
vt 0.375000 0.750000
vt 0.625000 1.000000
vt 0.375000 1.000000
vt 0.125000 0.500000
vt 0.125000 0.750000
vt 0.875000 0.500000
vt 0.875000 0.750000
s 0
usemtl usb_material
f 177/252/171 178/253/171 180/254/171 179/255/171
f 179/255/172 180/254/172 184/256/172 183/257/172
f 183/257/173 184/256/173 182/258/173 181/259/173
f 181/259/174 182/258/174 178/260/174 177/261/174
f 179/262/175 183/257/175 181/259/175 177/263/175
f 184/256/176 180/264/176 178/265/176 182/258/176
o battery
v 0.078950 -0.000017 -0.000025
v 0.078950 -0.000017 0.000025
v 0.078950 0.000017 -0.000025
v 0.078950 0.000017 0.000025
v 0.079450 -0.000017 -0.000025
v 0.079450 -0.000017 0.000025
v 0.079450 0.000017 -0.000025
v 0.079450 0.000017 0.000025
vn -1.0000 -0.0000 -0.0000
vn -0.0000 1.0000 -0.0000
vn 1.0000 -0.0000 -0.0000
vn -0.0000 -1.0000 -0.0000
vn -0.0000 -0.0000 -1.0000
vn -0.0000 -0.0000 1.0000
vt 0.375000 0.000000
vt 0.625000 0.000000
vt 0.625000 0.250000
vt 0.375000 0.250000
vt 0.625000 0.500000
vt 0.375000 0.500000
vt 0.625000 0.750000
vt 0.375000 0.750000
vt 0.625000 1.000000
vt 0.375000 1.000000
vt 0.125000 0.500000
vt 0.125000 0.750000
vt 0.875000 0.500000
vt 0.875000 0.750000
s 0
usemtl battery_material
f 185/266/177 186/267/177 188/268/177 187/269/177
f 187/269/178 188/268/178 192/270/178 191/271/178
f 191/271/179 192/270/179 190/272/179 189/273/179
f 189/273/180 190/272/180 186/274/180 185/275/180
f 187/276/181 191/271/181 189/273/181 185/277/181
f 192/270/182 188/278/182 186/279/182 190/272/182
